<?xml version="1.0" standalone="no"?>
<!DOCTYPE svg PUBLIC "-//W3C//DTD SVG 20010904//EN"
 "http://www.w3.org/TR/2001/REC-SVG-20010904/DTD/svg10.dtd">
<svg version="1.0" xmlns="http://www.w3.org/2000/svg"
 width="3000.000000pt" height="1845.000000pt" viewBox="0 0 3000.000000 1845.000000"
 preserveAspectRatio="xMidYMid meet">
<metadata>
Created by potrace 1.15, written by Peter Selinger 2001-2017
</metadata>
<g transform="translate(0.000000,1845.000000) scale(0.100000,-0.100000)"
fill="#000000" stroke="none">
<path d="M0 9225 l0 -9225 15000 0 15000 0 0 9027 0 9028 -34 -35 c-18 -19
-3174 -3594 -7011 -7945 -3838 -4350 -6989 -7921 -7002 -7935 -16 -17 1 26 55
140 43 91 766 1596 1605 3345 840 1750 1527 3186 1527 3192 0 7 -2253 2177
-5007 4823 l-5008 4810 -4562 0 -4563 0 0 -9225z"/>
</g>
</svg>
